<svg width="760" height="319" viewBox="0 0 760 319" fill="none" xmlns="http://www.w3.org/2000/svg">
<path d="M109.555 78.3398L78.5488 82.2729L74.694 104.804L59.3592 106.75L63.1929 84.1975L32.0599 88.1515L28.2262 110.683L11.2694 112.838L7.07761 138.444L23.9291 136.31L21.1486 153.339L4.1918 155.494L0 179.678L17.0832 177.523L12.6596 203.59L43.7927 199.657L48.2162 173.59L63.551 171.645L59.1486 197.691L90.1552 193.758L94.5787 167.691L111.662 165.536L115.833 141.352L98.6231 143.528L101.425 126.499L118.613 124.323L122.805 98.7163L105.722 100.871L109.555 78.3398ZM67.6164 147.461L52.2816 149.406L55.0621 132.377L70.3969 130.432L67.6164 147.461Z" fill="#FFFFFF"/>
<path d="M141.215 74.6777L121.372 190.053L162.111 184.886L163.796 170.221L181.469 168.108L183.028 182.229L223.892 177.062L205.187 66.5605L141.215 74.6777ZM167.145 141.393L170.242 114.008L171.653 101.539L173.844 101.267L175.508 113.359L178.351 139.991L167.145 141.393Z" fill="#FFFFFF"/>
<path d="M300.229 137.212L269.665 141.083V58.4473L230.443 63.4054V176.271L300.229 167.421V137.212Z" fill="#FFFFFF"/>
<path d="M347.287 48.6152L308.087 53.5734V166.439L347.287 161.46V48.6152Z" fill="#FFFFFF"/>
<path d="M396.283 140.808L413.956 138.695L415.493 152.837L456.379 147.67L437.674 37.1895L373.723 45.2856L353.88 160.661L394.619 155.515L396.283 140.808ZM402.728 84.5741L404.14 72.1055L406.33 71.8127L408.016 83.9046L410.859 110.536L399.632 111.959L402.728 84.5741Z" fill="#FFFFFF"/>
<path d="M510.156 27.9838L462.951 33.9671V146.832L510.156 140.87C536.971 137.46 554.771 122.669 554.771 95.201V63.2974C554.771 35.0131 537.498 24.532 510.156 27.9838ZM514.559 101.833C514.559 106.728 512.221 110.368 506.934 111.038L502.173 111.644V59.2179L507.186 58.5903C512.221 57.9627 514.559 60.9962 514.559 65.9125V101.833Z" fill="#FFFFFF"/>
<path d="M730.468 42.044L711.763 41.0607C708.034 40.5795 706.349 39.3452 706.349 35.8934V35.6632C706.349 32.1905 708.54 29.6591 712.521 29.1361C716.797 28.6131 718.714 30.6214 718.714 34.8055V36.6047L757.409 31.7093V27.5252C757.409 7.46258 741.169 -2.893 712.669 0.705306C681.599 4.63834 666.496 22.065 666.496 43.4456V43.8013C666.496 65.0564 676.059 73.7592 697.839 74.345L712.416 74.7634C716.797 75.1609 719.641 76.8345 719.641 80.4119V81.3743C719.641 84.847 717.176 87.7759 713.322 88.257C708.814 88.8219 706.75 85.9977 706.75 82.3994V80.14L667.675 85.0772V89.9725C667.675 110.621 682.505 120.809 713.322 116.918C742.98 113.173 760 96.3114 760 71.73V70.7676C759.979 49.2824 747.741 43.2992 730.468 42.044Z" fill="#FFFFFF"/>
<path d="M669.15 194.642L687.328 138.24L646.063 143.47L637.785 174.244L630.644 175.144L630.728 145.395L591.38 150.374V263.239L630.581 258.281V217.131L632.772 216.859L645.937 256.336L688.866 250.896L669.15 194.642Z" fill="#FFFFFF"/>
<path d="M173.064 203.32L153.201 318.696L193.96 313.549L195.624 298.884L213.297 296.771L214.835 310.913L255.7 305.746L236.994 195.266L173.064 203.32ZM198.994 270.035L202.091 242.65L203.523 230.182L205.714 229.889L207.378 241.981L210.222 268.612L198.994 270.035Z" fill="#FFFFFF"/>
<path d="M262.314 304.892L301.514 299.934V187.068L262.314 192.026V304.892Z" fill="#FFFFFF"/>
<path d="M407.384 213.425V209.722C407.384 187.755 394.998 175.224 366.898 178.781L315.712 185.266V298.131L354.912 293.173V261.521L364.075 260.37L369.341 291.353L410.101 286.207L398.494 239.784C403.887 233.215 407.384 224.429 407.384 213.425ZM367.151 221.395C367.151 229.512 364.181 233.592 358.514 234.303L355.039 234.743V210.517L358.514 210.077C364.181 209.366 367.151 212.567 367.151 219.136V221.395Z" fill="#FFFFFF"/>
<path d="M412.544 203.114L435.757 200.164V282.946L474.958 277.967V195.102L497.918 192.194V162.215L412.544 173.01V203.114Z" fill="#FFFFFF"/>
<path d="M545.102 226.232L579.142 221.922V193.617L545.102 197.906V186.462L581.206 181.881V151.672L505.901 161.191V274.056L581.859 264.454V234.224L545.102 238.868V226.232Z" fill="#FFFFFF"/>
<path d="M84.9102 244.551C84.9102 254.948 79.265 260.22 69.2594 261.497C58.7484 262.815 53.1874 258.003 53.1874 245.89V237.103C53.1874 224.949 58.7905 218.756 69.3437 217.417C79.3282 216.162 84.9102 219.739 84.9102 230.513V235.346L71.4923 236.999V230.89C71.4923 229.175 70.7339 228.233 69.3437 228.401C68.0166 228.568 67.153 229.718 67.153 231.434V247.982C67.153 249.697 67.9956 250.639 69.3858 250.472C70.7339 250.304 71.4923 249.154 71.4923 247.438V241.078L84.9102 239.426V244.551Z" fill="#FFFFFF"/>
<path d="M119.814 228.698V237.464C119.814 249.619 114.274 255.79 103.489 257.171C93.1674 258.489 87.3958 253.74 87.3958 241.564V232.799C87.3958 220.644 93.2096 214.431 103.552 213.113C114.274 211.753 119.814 216.543 119.814 228.698ZM105.848 226.564C105.848 224.807 104.942 223.887 103.615 224.054C102.267 224.221 101.34 225.372 101.34 227.15V243.74C101.34 245.414 102.288 246.376 103.573 246.209C104.963 246.02 105.869 244.891 105.869 243.154V226.564H105.848Z" fill="#FFFFFF"/>
<path d="M142.205 220.16V208.863L155.412 207.189V249.909L142.079 251.603L136.075 233.193L135.507 233.277L136.075 239.114V252.377L122.931 254.03V211.311L136.707 209.553L142.163 226.311L142.753 226.248L142.205 220.16Z" fill="#FFFFFF"/>
<path d="M676.859 65.7256C676.859 100.684 648.317 132.65 613.119 137.106C577.92 141.562 549.357 116.834 549.357 81.8552C549.357 46.8763 577.899 14.9309 613.119 10.454C648.317 6.01884 676.859 30.7467 676.859 65.7256Z" fill="#22BCF6"/>
<path d="M647.285 87.5441C646.779 86.8119 645.979 86.3516 645.052 86.247L593.002 81.1425L645.284 58.7995C646.211 58.402 646.969 57.7117 647.411 56.8121C647.854 55.9334 647.959 54.9502 647.685 54.0924C647.243 52.6698 645.811 51.8121 644.252 52.0004C643.894 52.0422 643.557 52.1468 643.199 52.2933L586.093 76.6864C586.093 76.6864 585.567 75.9333 585.567 74.1132V62.9627C585.567 61.0171 583.966 59.6363 581.986 59.8874C580.006 60.1384 578.384 61.9376 578.384 63.8832V75.0128C578.384 80.5358 580.932 87.2931 590.664 88.1717L643.43 93.36C643.704 93.3809 643.978 93.3809 644.231 93.3391C645.916 93.1298 647.348 91.8328 647.727 90.1592C647.98 89.2177 647.812 88.2763 647.285 87.5441Z" fill="white"/>

</svg>